<?xml version="1.0" encoding="UTF-8" standalone="no"?>
<!DOCTYPE svg PUBLIC "-//W3C//DTD SVG 1.1//EN"
 "http://www.w3.org/Graphics/SVG/1.1/DTD/svg11.dtd">
<!-- Generated by graphviz version 13.0.0 (20250608.1624)
 -->
<!-- Title: causal_graph Pages: 1 -->
<svg width="1111pt" height="1233pt"
 viewBox="0.00 0.00 1111.00 1233.00" xmlns="http://www.w3.org/2000/svg" xmlns:xlink="http://www.w3.org/1999/xlink">
<g id="graph0" class="graph" transform="scale(1 1) rotate(0) translate(4 1229)">
<title>causal_graph</title>
<polygon fill="white" stroke="none" points="-4,4 -4,-1229 1107.25,-1229 1107.25,4 -4,4"/>
<!-- 1 -->
<g id="node1" class="node">
<title>1</title>
<polygon fill="lightgreen" stroke="none" points="130.12,-1111 130.12,-1132 308.62,-1132 308.62,-1111 130.12,-1111"/>
<polygon fill="none" stroke="black" points="130.12,-1111 130.12,-1132 308.62,-1132 308.62,-1111 130.12,-1111"/>
<text xml:space="preserve" text-anchor="start" x="174" y="-1116.7" font-family="Helvetica,sans-Serif" font-weight="bold" font-size="14.00">Desired Effect</text>
<polygon fill="none" stroke="black" points="130.12,-1090 130.12,-1111 308.62,-1111 308.62,-1090 130.12,-1090"/>
<text xml:space="preserve" text-anchor="start" x="133.12" y="-1094.7" font-family="Helvetica,sans-Serif" font-size="14.00">1. Eyes protected from injury</text>
<polygon fill="none" stroke="black" points="129.12,-1089 129.12,-1133 309.62,-1133 309.62,-1089 129.12,-1089"/>
</g>
<!-- 2 -->
<g id="node2" class="node">
<title>2</title>
<polygon fill="green" stroke="none" points="172.5,-1199 172.5,-1220 266.25,-1220 266.25,-1199 172.5,-1199"/>
<polygon fill="none" stroke="black" points="172.5,-1199 172.5,-1220 266.25,-1220 266.25,-1199 172.5,-1199"/>
<text xml:space="preserve" text-anchor="start" x="204" y="-1204.7" font-family="Helvetica,sans-Serif" font-weight="bold" font-size="14.00">Goal</text>
<polygon fill="none" stroke="black" points="172.5,-1178 172.5,-1199 266.25,-1199 266.25,-1178 172.5,-1178"/>
<text xml:space="preserve" text-anchor="start" x="175.5" y="-1182.7" font-family="Helvetica,sans-Serif" font-size="14.00">2. Safe person</text>
<polygon fill="none" stroke="black" points="171.5,-1177 171.5,-1221 267.25,-1221 267.25,-1177 171.5,-1177"/>
</g>
<!-- 1&#45;&gt;2 -->
<g id="edge1" class="edge">
<title>1&#45;&gt;2</title>
<path fill="none" stroke="black" d="M219.38,-1136.87C219.38,-1144.63 219.38,-1153.35 219.38,-1161.72"/>
<polygon fill="black" stroke="black" points="215.88,-1161.67 219.38,-1171.67 222.88,-1161.67 215.88,-1161.67"/>
</g>
<!-- 3 -->
<g id="node3" class="node">
<title>3</title>
<polygon fill="lightcoral" stroke="none" points="579.75,-1023 579.75,-1044 693,-1044 693,-1023 579.75,-1023"/>
<polygon fill="none" stroke="black" points="579.75,-1023 579.75,-1044 693,-1044 693,-1023 579.75,-1023"/>
<text xml:space="preserve" text-anchor="start" x="582.75" y="-1028.7" font-family="Helvetica,sans-Serif" font-weight="bold" font-size="14.00">Undesired Effect</text>
<polygon fill="none" stroke="black" points="579.75,-1002 579.75,-1023 693,-1023 693,-1002 579.75,-1002"/>
<text xml:space="preserve" text-anchor="start" x="599.25" y="-1006.7" font-family="Helvetica,sans-Serif" font-size="14.00">3. Eye injury</text>
<polygon fill="none" stroke="black" points="578.75,-1001 578.75,-1045 694,-1045 694,-1001 578.75,-1001"/>
</g>
<!-- 19 -->
<g id="node19" class="node">
<title>19</title>
<polygon fill="lightcoral" stroke="none" points="556.88,-1111 556.88,-1132 715.88,-1132 715.88,-1111 556.88,-1111"/>
<polygon fill="none" stroke="black" points="556.88,-1111 556.88,-1132 715.88,-1132 715.88,-1111 556.88,-1111"/>
<text xml:space="preserve" text-anchor="start" x="582.75" y="-1116.7" font-family="Helvetica,sans-Serif" font-weight="bold" font-size="14.00">Undesired Effect</text>
<polygon fill="none" stroke="black" points="556.88,-1090 556.88,-1111 715.88,-1111 715.88,-1090 556.88,-1090"/>
<text xml:space="preserve" text-anchor="start" x="559.88" y="-1094.7" font-family="Helvetica,sans-Serif" font-size="14.00">19. Medical care required</text>
<polygon fill="none" stroke="black" points="555.88,-1089 555.88,-1133 716.88,-1133 716.88,-1089 555.88,-1089"/>
</g>
<!-- 3&#45;&gt;19 -->
<g id="edge2" class="edge">
<title>3&#45;&gt;19</title>
<path fill="none" stroke="black" d="M636.38,-1048.87C636.38,-1056.63 636.38,-1065.35 636.38,-1073.72"/>
<polygon fill="black" stroke="black" points="632.88,-1073.67 636.38,-1083.67 639.88,-1073.67 632.88,-1073.67"/>
</g>
<!-- 4 -->
<g id="node4" class="node">
<title>4</title>
<polygon fill="lightgray" stroke="none" points="568.12,-832 568.12,-853 704.62,-853 704.62,-832 568.12,-832"/>
<polygon fill="none" stroke="black" points="568.12,-832 568.12,-853 704.62,-853 704.62,-832 568.12,-832"/>
<text xml:space="preserve" text-anchor="start" x="575.25" y="-837.7" font-family="Helvetica,sans-Serif" font-weight="bold" font-size="14.00">Intermediate Effect</text>
<polygon fill="none" stroke="black" points="568.12,-811 568.12,-832 704.62,-832 704.62,-811 568.12,-811"/>
<text xml:space="preserve" text-anchor="start" x="571.12" y="-815.7" font-family="Helvetica,sans-Serif" font-size="14.00">4. Debris impacts eye</text>
<polygon fill="none" stroke="black" points="567.12,-810 567.12,-854 705.62,-854 705.62,-810 567.12,-810"/>
</g>
<!-- 20 -->
<g id="node20" class="node">
<title>20</title>
<polygon fill="lightcoral" stroke="none" points="560.25,-935 560.25,-956 712.5,-956 712.5,-935 560.25,-935"/>
<polygon fill="none" stroke="black" points="560.25,-935 560.25,-956 712.5,-956 712.5,-935 560.25,-935"/>
<text xml:space="preserve" text-anchor="start" x="582.75" y="-940.7" font-family="Helvetica,sans-Serif" font-weight="bold" font-size="14.00">Undesired Effect</text>
<polygon fill="none" stroke="black" points="560.25,-914 560.25,-935 712.5,-935 712.5,-914 560.25,-914"/>
<text xml:space="preserve" text-anchor="start" x="563.25" y="-918.7" font-family="Helvetica,sans-Serif" font-size="14.00">20. Projectile strikes eye</text>
<polygon fill="none" stroke="black" points="559.25,-913 559.25,-957 713.5,-957 713.5,-913 559.25,-913"/>
</g>
<!-- 4&#45;&gt;20 -->
<g id="edge3" class="edge">
<title>4&#45;&gt;20</title>
<path fill="none" stroke="black" d="M636.38,-857.97C636.38,-870.07 636.38,-884.84 636.38,-898.13"/>
<polygon fill="black" stroke="black" points="632.88,-897.81 636.38,-907.81 639.88,-897.81 632.88,-897.81"/>
</g>
<!-- 5 -->
<g id="node5" class="node">
<title>5</title>
<polygon fill="red" stroke="none" points="717.38,-393 717.38,-414 903.38,-414 903.38,-393 717.38,-393"/>
<polygon fill="none" stroke="black" points="717.38,-393 717.38,-414 903.38,-414 903.38,-393 717.38,-393"/>
<text xml:space="preserve" text-anchor="start" x="790.12" y="-398.7" font-family="Helvetica,sans-Serif" font-weight="bold" font-size="14.00">Cause</text>
<polygon fill="none" stroke="black" points="717.38,-372 717.38,-393 903.38,-393 903.38,-372 717.38,-372"/>
<text xml:space="preserve" text-anchor="start" x="720.38" y="-376.7" font-family="Helvetica,sans-Serif" font-size="14.00">5. Weed whacker flings debris</text>
<polygon fill="none" stroke="black" points="716.38,-371 716.38,-415 904.38,-415 904.38,-371 716.38,-371"/>
</g>
<!-- 12 -->
<g id="node12" class="node">
<title>12</title>
<polygon fill="lightgray" stroke="none" points="700.12,-481 700.12,-502 920.62,-502 920.62,-481 700.12,-481"/>
<polygon fill="none" stroke="black" points="700.12,-481 700.12,-502 920.62,-502 920.62,-481 700.12,-481"/>
<text xml:space="preserve" text-anchor="start" x="749.25" y="-486.7" font-family="Helvetica,sans-Serif" font-weight="bold" font-size="14.00">Intermediate Effect</text>
<polygon fill="none" stroke="black" points="700.12,-460 700.12,-481 920.62,-481 920.62,-460 700.12,-460"/>
<text xml:space="preserve" text-anchor="start" x="703.12" y="-464.7" font-family="Helvetica,sans-Serif" font-size="14.00">12. Projectiles travel at high velocity</text>
<polygon fill="none" stroke="black" points="699.12,-459 699.12,-503 921.62,-503 921.62,-459 699.12,-459"/>
</g>
<!-- 5&#45;&gt;12 -->
<g id="edge11" class="edge">
<title>5&#45;&gt;12</title>
<path fill="none" stroke="black" d="M810.38,-418.87C810.38,-426.63 810.38,-435.35 810.38,-443.72"/>
<polygon fill="black" stroke="black" points="806.88,-443.67 810.38,-453.67 813.88,-443.67 806.88,-443.67"/>
</g>
<!-- 6 -->
<g id="node6" class="node">
<title>6</title>
<polygon fill="red" stroke="none" points="417,-393 417,-414 681.75,-414 681.75,-393 417,-393"/>
<polygon fill="none" stroke="black" points="417,-393 417,-414 681.75,-414 681.75,-393 417,-393"/>
<text xml:space="preserve" text-anchor="start" x="529.12" y="-398.7" font-family="Helvetica,sans-Serif" font-weight="bold" font-size="14.00">Cause</text>
<polygon fill="none" stroke="black" points="417,-372 417,-393 681.75,-393 681.75,-372 417,-372"/>
<text xml:space="preserve" text-anchor="start" x="420" y="-376.7" font-family="Helvetica,sans-Serif" font-size="14.00">6. Operator declines to wear eye protection</text>
<polygon fill="none" stroke="black" points="416,-371 416,-415 682.75,-415 682.75,-371 416,-371"/>
</g>
<!-- 21 -->
<g id="node21" class="node">
<title>21</title>
<ellipse fill="none" stroke="black" cx="663.38" cy="-649" rx="18" ry="18"/>
<text xml:space="preserve" text-anchor="middle" x="663.38" y="-643.2" font-family="Helvetica,sans-Serif" font-size="14.00">AND</text>
</g>
<!-- 6&#45;&gt;21 -->
<g id="edge12" class="edge">
<title>6&#45;&gt;21</title>
<path fill="none" stroke="black" d="M569.66,-418.97C591.58,-447.3 625.86,-495.72 644.38,-543 654.08,-567.77 658.87,-597.8 661.21,-619.38"/>
<polygon fill="black" stroke="black" points="657.72,-619.59 662.16,-629.21 664.69,-618.92 657.72,-619.59"/>
</g>
<!-- 7 -->
<g id="node7" class="node">
<title>7</title>
<polygon fill="#a9cce3" stroke="none" points="423,-26 423,-47 675.75,-47 675.75,-26 423,-26"/>
<polygon fill="none" stroke="black" points="423,-26 423,-47 675.75,-47 675.75,-26 423,-26"/>
<text xml:space="preserve" text-anchor="start" x="508.12" y="-31.7" font-family="Helvetica,sans-Serif" font-weight="bold" font-size="14.00">Precondition</text>
<polygon fill="none" stroke="black" points="423,-5 423,-26 675.75,-26 675.75,-5 423,-5"/>
<text xml:space="preserve" text-anchor="start" x="426" y="-9.7" font-family="Helvetica,sans-Serif" font-size="14.00">7. Overgrown vegetation around property</text>
<polygon fill="none" stroke="black" points="422,-4 422,-48 676.75,-48 676.75,-4 422,-4"/>
</g>
<!-- 8 -->
<g id="node8" class="node">
<title>8</title>
<polygon fill="orange" stroke="none" points="443.25,-114 443.25,-135 655.5,-135 655.5,-114 443.25,-114"/>
<polygon fill="none" stroke="black" points="443.25,-114 443.25,-135 655.5,-135 655.5,-114 443.25,-114"/>
<text xml:space="preserve" text-anchor="start" x="528.38" y="-119.7" font-family="Helvetica,sans-Serif" font-weight="bold" font-size="14.00">Action</text>
<polygon fill="none" stroke="black" points="443.25,-93 443.25,-114 655.5,-114 655.5,-93 443.25,-93"/>
<text xml:space="preserve" text-anchor="start" x="446.25" y="-97.7" font-family="Helvetica,sans-Serif" font-size="14.00">8. Decided to use a weed whacker</text>
<polygon fill="none" stroke="black" points="442.25,-92 442.25,-136 656.5,-136 656.5,-92 442.25,-92"/>
</g>
<!-- 7&#45;&gt;8 -->
<g id="edge5" class="edge">
<title>7&#45;&gt;8</title>
<path fill="none" stroke="black" d="M549.38,-51.87C549.38,-59.63 549.38,-68.35 549.38,-76.72"/>
<polygon fill="black" stroke="black" points="545.88,-76.67 549.38,-86.67 552.88,-76.67 545.88,-76.67"/>
</g>
<!-- 8&#45;&gt;6 -->
<g id="edge6" class="edge">
<title>8&#45;&gt;6</title>
<path fill="none" stroke="black" d="M549.38,-139.58C549.38,-188.53 549.38,-298.4 549.38,-355.69"/>
<polygon fill="black" stroke="black" points="545.88,-355.56 549.38,-365.56 552.88,-355.56 545.88,-355.56"/>
</g>
<!-- 10 -->
<g id="node10" class="node">
<title>10</title>
<polygon fill="lightgray" stroke="none" points="618.25,-202 618.25,-223 836.5,-223 836.5,-202 618.25,-202"/>
<polygon fill="none" stroke="black" points="618.25,-202 618.25,-223 836.5,-223 836.5,-202 618.25,-202"/>
<text xml:space="preserve" text-anchor="start" x="666.25" y="-207.7" font-family="Helvetica,sans-Serif" font-weight="bold" font-size="14.00">Intermediate Effect</text>
<polygon fill="none" stroke="black" points="618.25,-181 618.25,-202 836.5,-202 836.5,-181 618.25,-181"/>
<text xml:space="preserve" text-anchor="start" x="621.25" y="-185.7" font-family="Helvetica,sans-Serif" font-size="14.00">10. Rotating string at 10,000+ RPM</text>
<polygon fill="none" stroke="black" points="617.25,-180 617.25,-224 837.5,-224 837.5,-180 617.25,-180"/>
</g>
<!-- 8&#45;&gt;10 -->
<g id="edge7" class="edge">
<title>8&#45;&gt;10</title>
<path fill="none" stroke="black" d="M600.86,-139.87C621.07,-149.64 644.43,-160.93 665.54,-171.12"/>
<polygon fill="black" stroke="black" points="663.81,-174.17 674.33,-175.37 666.85,-167.87 663.81,-174.17"/>
</g>
<!-- 15 -->
<g id="node15" class="node">
<title>15</title>
<polygon fill="orange" stroke="none" points="306.88,-297.5 306.88,-318.5 459.88,-318.5 459.88,-297.5 306.88,-297.5"/>
<polygon fill="none" stroke="black" points="306.88,-297.5 306.88,-318.5 459.88,-318.5 459.88,-297.5 306.88,-297.5"/>
<text xml:space="preserve" text-anchor="start" x="362.38" y="-303.2" font-family="Helvetica,sans-Serif" font-weight="bold" font-size="14.00">Action</text>
<polygon fill="none" stroke="black" points="306.88,-276.5 306.88,-297.5 459.88,-297.5 459.88,-276.5 306.88,-276.5"/>
<text xml:space="preserve" text-anchor="start" x="309.88" y="-281.2" font-family="Helvetica,sans-Serif" font-size="14.00">15. Operator wears PPE</text>
<polygon fill="none" stroke="black" points="305.88,-275.5 305.88,-319.5 460.88,-319.5 460.88,-275.5 305.88,-275.5"/>
</g>
<!-- 8&#45;&gt;15 -->
<g id="edge4" class="edge">
<title>8&#45;&gt;15</title>
<path fill="none" stroke="black" d="M526.64,-139.86C497.29,-171.94 446.14,-227.88 413.56,-263.5"/>
<polygon fill="black" stroke="black" points="411.29,-260.8 407.12,-270.54 416.45,-265.52 411.29,-260.8"/>
</g>
<!-- 9 -->
<g id="node9" class="node">
<title>9</title>
<polygon fill="lightgray" stroke="none" points="637.5,-305 637.5,-326 881.25,-326 881.25,-305 637.5,-305"/>
<polygon fill="none" stroke="black" points="637.5,-305 637.5,-326 881.25,-326 881.25,-305 637.5,-305"/>
<text xml:space="preserve" text-anchor="start" x="698.25" y="-310.7" font-family="Helvetica,sans-Serif" font-weight="bold" font-size="14.00">Intermediate Effect</text>
<polygon fill="none" stroke="black" points="637.5,-269 637.5,-305 881.25,-305 881.25,-269 637.5,-269"/>
<text xml:space="preserve" text-anchor="start" x="640.5" y="-288.7" font-family="Helvetica,sans-Serif" font-size="14.00">9. Weed whacker spinning string strikes</text>
<text xml:space="preserve" text-anchor="start" x="653.62" y="-273.7" font-family="Helvetica,sans-Serif" font-size="14.00">vegetation, debris, or hard surfaces</text>
<polygon fill="none" stroke="black" points="636.5,-268 636.5,-327 882.25,-327 882.25,-268 636.5,-268"/>
</g>
<!-- 9&#45;&gt;5 -->
<g id="edge24" class="edge">
<title>9&#45;&gt;5</title>
<path fill="none" stroke="black" d="M777.07,-330.94C781.74,-339.51 786.8,-348.78 791.53,-357.46"/>
<polygon fill="black" stroke="black" points="788.31,-358.85 796.17,-365.96 794.45,-355.5 788.31,-358.85"/>
</g>
<!-- 10&#45;&gt;9 -->
<g id="edge23" class="edge">
<title>10&#45;&gt;9</title>
<path fill="none" stroke="black" d="M735.78,-227.57C738.49,-235.49 741.59,-244.52 744.62,-253.38"/>
<polygon fill="black" stroke="black" points="741.21,-254.25 747.76,-262.58 747.84,-251.98 741.21,-254.25"/>
</g>
<!-- 11 -->
<g id="node11" class="node">
<title>11</title>
<polygon fill="lightgray" stroke="none" points="700.75,-569 700.75,-590 892,-590 892,-569 700.75,-569"/>
<polygon fill="none" stroke="black" points="700.75,-569 700.75,-590 892,-590 892,-569 700.75,-569"/>
<text xml:space="preserve" text-anchor="start" x="735.25" y="-574.7" font-family="Helvetica,sans-Serif" font-weight="bold" font-size="14.00">Intermediate Effect</text>
<polygon fill="none" stroke="black" points="700.75,-548 700.75,-569 892,-569 892,-548 700.75,-548"/>
<text xml:space="preserve" text-anchor="start" x="703.75" y="-552.7" font-family="Helvetica,sans-Serif" font-size="14.00">11. Debris becomes projectiles</text>
<polygon fill="none" stroke="black" points="699.75,-547 699.75,-591 893,-591 893,-547 699.75,-547"/>
</g>
<!-- 11&#45;&gt;21 -->
<g id="edge15" class="edge">
<title>11&#45;&gt;21</title>
<path fill="none" stroke="black" d="M753.93,-594.89C732.35,-607.55 706.86,-622.5 688.43,-633.3"/>
<polygon fill="black" stroke="black" points="686.9,-630.15 680.04,-638.22 690.44,-636.18 686.9,-630.15"/>
</g>
<!-- 12&#45;&gt;11 -->
<g id="edge14" class="edge">
<title>12&#45;&gt;11</title>
<path fill="none" stroke="black" d="M806.33,-506.87C805.05,-514.72 803.61,-523.55 802.23,-532.01"/>
<polygon fill="black" stroke="black" points="798.81,-531.25 800.66,-541.69 805.72,-532.38 798.81,-531.25"/>
</g>
<!-- 13 -->
<g id="node13" class="node">
<title>13</title>
<polygon fill="#a9cce3" stroke="none" points="928.5,-569 928.5,-590 1094.25,-590 1094.25,-569 928.5,-569"/>
<polygon fill="none" stroke="black" points="928.5,-569 928.5,-590 1094.25,-590 1094.25,-569 928.5,-569"/>
<text xml:space="preserve" text-anchor="start" x="970.12" y="-574.7" font-family="Helvetica,sans-Serif" font-weight="bold" font-size="14.00">Precondition</text>
<polygon fill="none" stroke="black" points="928.5,-548 928.5,-569 1094.25,-569 1094.25,-548 928.5,-548"/>
<text xml:space="preserve" text-anchor="start" x="931.5" y="-552.7" font-family="Helvetica,sans-Serif" font-size="14.00">13. Operator in debris field</text>
<polygon fill="none" stroke="black" points="927.5,-547 927.5,-591 1095.25,-591 1095.25,-547 927.5,-547"/>
</g>
<!-- 13&#45;&gt;21 -->
<g id="edge13" class="edge">
<title>13&#45;&gt;21</title>
<path fill="none" stroke="black" d="M919.75,-592.81C916.59,-593.56 913.46,-594.29 910.38,-595 831.72,-613.17 738.49,-632.61 692.3,-642.1"/>
<polygon fill="black" stroke="black" points="691.66,-638.66 682.57,-644.09 693.07,-645.51 691.66,-638.66"/>
</g>
<!-- 14 -->
<g id="node14" class="node">
<title>14</title>
<polygon fill="#a9cce3" stroke="none" points="368,-569 368,-590 626.75,-590 626.75,-569 368,-569"/>
<polygon fill="none" stroke="black" points="368,-569 368,-590 626.75,-590 626.75,-569 368,-569"/>
<text xml:space="preserve" text-anchor="start" x="456.12" y="-574.7" font-family="Helvetica,sans-Serif" font-weight="bold" font-size="14.00">Precondition</text>
<polygon fill="none" stroke="black" points="368,-548 368,-569 626.75,-569 626.75,-548 368,-548"/>
<text xml:space="preserve" text-anchor="start" x="371" y="-552.7" font-family="Helvetica,sans-Serif" font-size="14.00">14. Human reaction time too slow to avoid</text>
<polygon fill="none" stroke="black" points="367,-547 367,-591 627.75,-591 627.75,-547 367,-547"/>
</g>
<!-- 14&#45;&gt;21 -->
<g id="edge17" class="edge">
<title>14&#45;&gt;21</title>
<path fill="none" stroke="black" d="M550.35,-594.89C579.35,-608.52 614,-624.8 637.22,-635.71"/>
<polygon fill="black" stroke="black" points="635.42,-638.73 645.96,-639.81 638.39,-632.39 635.42,-638.73"/>
</g>
<!-- 18 -->
<g id="node18" class="node">
<title>18</title>
<polygon fill="lightgray" stroke="none" points="238,-832 238,-853 478.75,-853 478.75,-832 238,-832"/>
<polygon fill="none" stroke="black" points="238,-832 238,-853 478.75,-853 478.75,-832 238,-832"/>
<text xml:space="preserve" text-anchor="start" x="297.25" y="-837.7" font-family="Helvetica,sans-Serif" font-weight="bold" font-size="14.00">Intermediate Effect</text>
<polygon fill="none" stroke="black" points="238,-811 238,-832 478.75,-832 478.75,-811 238,-811"/>
<text xml:space="preserve" text-anchor="start" x="241" y="-815.7" font-family="Helvetica,sans-Serif" font-size="14.00">18. Projectile debris strikes PPE barrier</text>
<polygon fill="none" stroke="black" points="237,-810 237,-854 479.75,-854 479.75,-810 237,-810"/>
</g>
<!-- 15&#45;&gt;18 -->
<g id="edge9" class="edge">
<title>15&#45;&gt;18</title>
<path fill="none" stroke="black" d="M371.45,-323.4C356.09,-357.79 331.38,-422.15 331.38,-480 331.38,-480 331.38,-480 331.38,-650 331.38,-700.89 341.94,-758.95 349.86,-795.29"/>
<polygon fill="black" stroke="black" points="346.39,-795.82 351.99,-804.81 353.22,-794.29 346.39,-795.82"/>
</g>
<!-- 16 -->
<g id="node16" class="node">
<title>16</title>
<polygon fill="lightgray" stroke="none" points="62.25,-1023 62.25,-1044 376.5,-1044 376.5,-1023 62.25,-1023"/>
<polygon fill="none" stroke="black" points="62.25,-1023 62.25,-1044 376.5,-1044 376.5,-1023 62.25,-1023"/>
<text xml:space="preserve" text-anchor="start" x="158.25" y="-1028.7" font-family="Helvetica,sans-Serif" font-weight="bold" font-size="14.00">Intermediate Effect</text>
<polygon fill="none" stroke="black" points="62.25,-1002 62.25,-1023 376.5,-1023 376.5,-1002 62.25,-1002"/>
<text xml:space="preserve" text-anchor="start" x="65.25" y="-1006.7" font-family="Helvetica,sans-Serif" font-size="14.00">16. Impact&#45;resistant lenses deflect projectile energy</text>
<polygon fill="none" stroke="black" points="61.25,-1001 61.25,-1045 377.5,-1045 377.5,-1001 61.25,-1001"/>
</g>
<!-- 16&#45;&gt;1 -->
<g id="edge16" class="edge">
<title>16&#45;&gt;1</title>
<path fill="none" stroke="black" d="M219.38,-1048.87C219.38,-1056.63 219.38,-1065.35 219.38,-1073.72"/>
<polygon fill="black" stroke="black" points="215.88,-1073.67 219.38,-1083.67 222.88,-1073.67 215.88,-1073.67"/>
</g>
<!-- 17 -->
<g id="node17" class="node">
<title>17</title>
<polygon fill="#a9cce3" stroke="none" points="9,-847 9,-868 201.75,-868 201.75,-847 9,-847"/>
<polygon fill="none" stroke="black" points="9,-847 9,-868 201.75,-868 201.75,-847 9,-847"/>
<text xml:space="preserve" text-anchor="start" x="64.12" y="-852.7" font-family="Helvetica,sans-Serif" font-weight="bold" font-size="14.00">Precondition</text>
<polygon fill="none" stroke="black" points="9,-796 9,-847 201.75,-847 201.75,-796 9,-796"/>
<text xml:space="preserve" text-anchor="start" x="16.88" y="-830.7" font-family="Helvetica,sans-Serif" font-size="14.00">17. Polycarbonate lenses can</text>
<text xml:space="preserve" text-anchor="start" x="12" y="-815.7" font-family="Helvetica,sans-Serif" font-size="14.00">withstand high&#45;velocity impacts</text>
<text xml:space="preserve" text-anchor="start" x="52.5" y="-800.7" font-family="Helvetica,sans-Serif" font-size="14.00">without shattering</text>
<polygon fill="none" stroke="black" points="8,-795 8,-869 202.75,-869 202.75,-795 8,-795"/>
</g>
<!-- 23 -->
<g id="node23" class="node">
<title>23</title>
<ellipse fill="none" stroke="black" cx="219.38" cy="-935" rx="18" ry="18"/>
<text xml:space="preserve" text-anchor="middle" x="219.38" y="-929.2" font-family="Helvetica,sans-Serif" font-size="14.00">AND</text>
</g>
<!-- 17&#45;&gt;23 -->
<g id="edge20" class="edge">
<title>17&#45;&gt;23</title>
<path fill="none" stroke="black" d="M150.43,-872.92C166.71,-887.34 184.36,-902.98 197.72,-914.81"/>
<polygon fill="black" stroke="black" points="195.28,-917.33 205.08,-921.34 199.92,-912.09 195.28,-917.33"/>
</g>
<!-- 18&#45;&gt;23 -->
<g id="edge21" class="edge">
<title>18&#45;&gt;23</title>
<path fill="none" stroke="black" d="M324.02,-857.97C298.66,-876.39 264.85,-900.96 242.61,-917.12"/>
<polygon fill="black" stroke="black" points="240.82,-914.09 234.79,-922.8 244.93,-919.75 240.82,-914.09"/>
</g>
<!-- 20&#45;&gt;3 -->
<g id="edge19" class="edge">
<title>20&#45;&gt;3</title>
<path fill="none" stroke="black" d="M636.38,-960.87C636.38,-968.63 636.38,-977.35 636.38,-985.72"/>
<polygon fill="black" stroke="black" points="632.88,-985.67 636.38,-995.67 639.88,-985.67 632.88,-985.67"/>
</g>
<!-- 22 -->
<g id="node22" class="node">
<title>22</title>
<polygon fill="lightgray" stroke="none" points="541.12,-729 541.12,-750 731.62,-750 731.62,-729 541.12,-729"/>
<polygon fill="none" stroke="black" points="541.12,-729 541.12,-750 731.62,-750 731.62,-729 541.12,-729"/>
<text xml:space="preserve" text-anchor="start" x="575.25" y="-734.7" font-family="Helvetica,sans-Serif" font-weight="bold" font-size="14.00">Intermediate Effect</text>
<polygon fill="none" stroke="black" points="541.12,-708 541.12,-729 731.62,-729 731.62,-708 541.12,-708"/>
<text xml:space="preserve" text-anchor="start" x="544.12" y="-712.7" font-family="Helvetica,sans-Serif" font-size="14.00">22. Projectile approaches eyes</text>
<polygon fill="none" stroke="black" points="540.12,-707 540.12,-751 732.62,-751 732.62,-707 540.12,-707"/>
</g>
<!-- 21&#45;&gt;22 -->
<g id="edge18" class="edge">
<title>21&#45;&gt;22</title>
<path fill="none" stroke="black" d="M657.65,-666.54C655.03,-674.11 651.82,-683.39 648.69,-692.42"/>
<polygon fill="black" stroke="black" points="645.43,-691.15 645.46,-701.75 652.04,-693.44 645.43,-691.15"/>
</g>
<!-- 22&#45;&gt;4 -->
<g id="edge8" class="edge">
<title>22&#45;&gt;4</title>
<path fill="none" stroke="black" d="M636.38,-754.97C636.38,-767.07 636.38,-781.84 636.38,-795.13"/>
<polygon fill="black" stroke="black" points="632.88,-794.81 636.38,-804.81 639.88,-794.81 632.88,-794.81"/>
</g>
<!-- 22&#45;&gt;18 -->
<g id="edge10" class="edge">
<title>22&#45;&gt;18</title>
<path fill="none" stroke="black" d="M567.66,-754.97C528.25,-769.28 478.61,-787.32 437.57,-802.23"/>
<polygon fill="black" stroke="black" points="436.41,-798.92 428.21,-805.63 438.8,-805.5 436.41,-798.92"/>
</g>
<!-- 23&#45;&gt;16 -->
<g id="edge22" class="edge">
<title>23&#45;&gt;16</title>
<path fill="none" stroke="black" d="M219.38,-953.4C219.38,-962.73 219.38,-974.58 219.38,-985.8"/>
<polygon fill="black" stroke="black" points="215.88,-985.61 219.38,-995.61 222.88,-985.61 215.88,-985.61"/>
</g>
</g>
</svg>
